<?xml version="1.0" encoding="UTF-8" standalone="no"?>
<!-- Generator: Adobe Illustrator 16.0.0, SVG Export Plug-In . SVG Version: 6.00 Build 0)  -->

<svg
   xmlns:dc="http://purl.org/dc/elements/1.1/"
   xmlns:cc="http://creativecommons.org/ns#"
   xmlns:rdf="http://www.w3.org/1999/02/22-rdf-syntax-ns#"
   xmlns:svg="http://www.w3.org/2000/svg"
   xmlns="http://www.w3.org/2000/svg"
   xmlns:sodipodi="http://sodipodi.sourceforge.net/DTD/sodipodi-0.dtd"
   xmlns:inkscape="http://www.inkscape.org/namespaces/inkscape"
   version="1.1"
   id="Capa_1"
   x="0px"
   y="0px"
   width="64px"
   height="64px"
   viewBox="0 0 64 64"
   style="enable-background:new 0 0 64 64;"
   xml:space="preserve"
   inkscape:version="0.91 r13725"
   sodipodi:docname="up-rounded-button-outline.svg"
   inkscape:export-filename="C:\Users\david\Dropbox\00_ComputerSync\Documents\git-repositories\PiScore\files\gui\up-rounded-button-outline.png"
   inkscape:export-xdpi="70.309998"
   inkscape:export-ydpi="70.309998"><metadata
     id="metadata51"><rdf:RDF><cc:Work
         rdf:about=""><dc:format>image/svg+xml</dc:format><dc:type
           rdf:resource="http://purl.org/dc/dcmitype/StillImage" /></cc:Work></rdf:RDF></metadata><defs
     id="defs49" /><sodipodi:namedview
     pagecolor="#ffffff"
     bordercolor="#666666"
     borderopacity="1"
     objecttolerance="10"
     gridtolerance="10"
     guidetolerance="10"
     inkscape:pageopacity="0"
     inkscape:pageshadow="2"
     inkscape:window-width="1600"
     inkscape:window-height="837"
     id="namedview47"
     showgrid="false"
     inkscape:zoom="3.6875"
     inkscape:cx="-49.084746"
     inkscape:cy="32"
     inkscape:window-x="-8"
     inkscape:window-y="-8"
     inkscape:window-maximized="1"
     inkscape:current-layer="Capa_1" /><g
     id="g3"
     transform="matrix(0,-1,1,0,0,64)"><g
       id="g5"><g
         id="circle_18_"><g
           id="g8"><path
             d="M 32,0 C 14.327,0 0,14.327 0,32 0,49.673 14.327,64 32,64 49.673,64 64,49.673 64,32 64,14.327 49.673,0 32,0 Z m 0,62 C 15.432,62 2,48.568 2,32.001 2,15.432 15.432,2 32,2 48.568,2 62,15.432 62,32.001 62,48.568 48.568,62 32,62 Z"
             id="path10"
             inkscape:connector-curvature="0" /></g></g><g
         id="play"><g
           id="g13"><path
             d="m 41.109,30.341 -12,-7.989 C 28.496,21.944 27.707,21.905 27.056,22.252 26.406,22.599 26,23.275 26,24.013 l 0,15.98 c 0,0.737 0.406,1.412 1.057,1.761 0.65,0.348 1.439,0.311 2.053,-0.1 l 12,-7.989 C 41.666,33.294 42,32.67 42,32.003 42,31.335 41.666,30.712 41.109,30.341 Z M 38.8,33.422 29.411,39.208 C 28.907,39.543 28,39.559 28,39.559 c 0,0 0,-0.93 0,-1.533 l 0,-12.019 c 0,-0.604 0,-1.659 0,-1.659 0,0 0.907,-0.046 1.411,0.287 l 9.389,6.193 c 0.457,0.303 0.731,0.688 0.731,1.234 0,0.545 -0.274,1.057 -0.731,1.36 z"
             id="path15"
             inkscape:connector-curvature="0" /></g></g></g></g><g
     id="g17"
     transform="matrix(0,-1,1,0,0,64)" /><g
     id="g19"
     transform="matrix(0,-1,1,0,0,64)" /><g
     id="g21"
     transform="matrix(0,-1,1,0,0,64)" /><g
     id="g23"
     transform="matrix(0,-1,1,0,0,64)" /><g
     id="g25"
     transform="matrix(0,-1,1,0,0,64)" /><g
     id="g27"
     transform="matrix(0,-1,1,0,0,64)" /><g
     id="g29"
     transform="matrix(0,-1,1,0,0,64)" /><g
     id="g31"
     transform="matrix(0,-1,1,0,0,64)" /><g
     id="g33"
     transform="matrix(0,-1,1,0,0,64)" /><g
     id="g35"
     transform="matrix(0,-1,1,0,0,64)" /><g
     id="g37"
     transform="matrix(0,-1,1,0,0,64)" /><g
     id="g39"
     transform="matrix(0,-1,1,0,0,64)" /><g
     id="g41"
     transform="matrix(0,-1,1,0,0,64)" /><g
     id="g43"
     transform="matrix(0,-1,1,0,0,64)" /><g
     id="g45"
     transform="matrix(0,-1,1,0,0,64)" /></svg>