<?xml version="1.0" encoding="UTF-8" standalone="no"?>
<!-- Generator: Adobe Illustrator 16.0.0, SVG Export Plug-In . SVG Version: 6.00 Build 0)  -->

<svg
   xmlns:dc="http://purl.org/dc/elements/1.1/"
   xmlns:cc="http://creativecommons.org/ns#"
   xmlns:rdf="http://www.w3.org/1999/02/22-rdf-syntax-ns#"
   xmlns:svg="http://www.w3.org/2000/svg"
   xmlns="http://www.w3.org/2000/svg"
   xmlns:sodipodi="http://sodipodi.sourceforge.net/DTD/sodipodi-0.dtd"
   xmlns:inkscape="http://www.inkscape.org/namespaces/inkscape"
   version="1.1"
   id="Capa_1"
   x="0px"
   y="0px"
   width="64px"
   height="64px"
   viewBox="0 0 64 64"
   style="enable-background:new 0 0 64 64;"
   xml:space="preserve"
   inkscape:version="0.91 r13725"
   sodipodi:docname="black-projector-outlined-symbol-in-circular-button.svg"
   inkscape:export-filename="C:\Users\david\Dropbox\00_ComputerSync\Documents\git-repositories\PiScore\gui\black-projector-outlined-symbol-in-circular-button.png"
   inkscape:export-xdpi="70.3125"
   inkscape:export-ydpi="70.3125"><metadata
     id="metadata51"><rdf:RDF><cc:Work
         rdf:about=""><dc:format>image/svg+xml</dc:format><dc:type
           rdf:resource="http://purl.org/dc/dcmitype/StillImage" /></cc:Work></rdf:RDF></metadata><defs
     id="defs49" /><sodipodi:namedview
     pagecolor="#ffffff"
     bordercolor="#666666"
     borderopacity="1"
     objecttolerance="10"
     gridtolerance="10"
     guidetolerance="10"
     inkscape:pageopacity="0"
     inkscape:pageshadow="2"
     inkscape:window-width="1600"
     inkscape:window-height="837"
     id="namedview47"
     showgrid="false"
     inkscape:zoom="3.6875"
     inkscape:cx="32"
     inkscape:cy="32"
     inkscape:window-x="-8"
     inkscape:window-y="-8"
     inkscape:window-maximized="1"
     inkscape:current-layer="Capa_1" /><g
     id="g3"><g
       id="g5"><g
         id="circle_39_"><g
           id="g8"><path
             d="M32,0C14.327,0,0,14.327,0,32s14.327,32,32,32s32-14.327,32-32S49.673,0,32,0z M32,62C15.432,62,2,48.568,2,32      C2,15.432,15.432,2,32,2c16.568,0,30,13.432,30,30C62,48.568,48.568,62,32,62z"
             id="path10" /></g></g><g
         id="Rectangle_2"><g
           id="g13"><path
             d="M44,38h-2v2h2V38z M48,34l-4-11c0-1.104-0.896-2-2-2H22c-1.104,0-2,0.896-2,2l-4,11c0,0.366,0.105,0.705,0.277,1      C16.105,35.295,16,35.634,16,36v6c0,1.104,0.896,2,2,2h28c1.104,0,2-0.896,2-2v-6c0-0.366-0.105-0.705-0.277-1      C47.895,34.705,48,34.366,48,34z M46,42H18v-6h28V42z M18,34l4-11h20l4,11H18z"
             id="path15" /></g></g></g></g><g
     id="g17" /><g
     id="g19" /><g
     id="g21" /><g
     id="g23" /><g
     id="g25" /><g
     id="g27" /><g
     id="g29" /><g
     id="g31" /><g
     id="g33" /><g
     id="g35" /><g
     id="g37" /><g
     id="g39" /><g
     id="g41" /><g
     id="g43" /><g
     id="g45" /></svg>