<?xml version="1.0" encoding="UTF-8" standalone="no"?>
<!-- Generator: Adobe Illustrator 16.0.0, SVG Export Plug-In . SVG Version: 6.00 Build 0)  -->

<svg
   xmlns:dc="http://purl.org/dc/elements/1.1/"
   xmlns:cc="http://creativecommons.org/ns#"
   xmlns:rdf="http://www.w3.org/1999/02/22-rdf-syntax-ns#"
   xmlns:svg="http://www.w3.org/2000/svg"
   xmlns="http://www.w3.org/2000/svg"
   xmlns:sodipodi="http://sodipodi.sourceforge.net/DTD/sodipodi-0.dtd"
   xmlns:inkscape="http://www.inkscape.org/namespaces/inkscape"
   version="1.1"
   id="Capa_1"
   x="0px"
   y="0px"
   width="64px"
   height="64px"
   viewBox="0 0 64 64"
   style="enable-background:new 0 0 64 64;"
   xml:space="preserve"
   inkscape:version="0.91 r13725"
   sodipodi:docname="edit-eraser-outline-in-circular-button.svg"
   inkscape:export-filename="C:\Users\david\Dropbox\00_ComputerSync\Documents\00_Music\Scores\David_Stephen_Grant\Classical\2016_nunord_strQuar\PROCESSING\dev\files\gui\edit-eraser-outline-in-circular-button.png"
   inkscape:export-xdpi="70.3125"
   inkscape:export-ydpi="70.3125"><metadata
     id="metadata51"><rdf:RDF><cc:Work
         rdf:about=""><dc:format>image/svg+xml</dc:format><dc:type
           rdf:resource="http://purl.org/dc/dcmitype/StillImage" /><dc:title></dc:title></cc:Work></rdf:RDF></metadata><defs
     id="defs49" /><sodipodi:namedview
     pagecolor="#ffffff"
     bordercolor="#666666"
     borderopacity="1"
     objecttolerance="10"
     gridtolerance="10"
     guidetolerance="10"
     inkscape:pageopacity="0"
     inkscape:pageshadow="2"
     inkscape:window-width="1600"
     inkscape:window-height="837"
     id="namedview47"
     showgrid="false"
     inkscape:zoom="3.6875"
     inkscape:cx="23.374522"
     inkscape:cy="32"
     inkscape:window-x="-8"
     inkscape:window-y="-8"
     inkscape:window-maximized="1"
     inkscape:current-layer="Capa_1" /><g
     id="g3415"
     transform="matrix(-1,0,0,-1,64,64)"><g
       id="g3417"><g
         id="g3419"><g
           id="g3421"><path
             id="path3423"
             d="M 32,0 C 14.327,0 0,14.327 0,32 0,49.673 14.327,64 32,64 49.673,64 64,49.673 64,32 64,14.327 49.673,0 32,0 Z m 0,62 C 15.432,62 2,48.568 2,32 2,15.432 15.432,2 32,2 48.568,2 62,15.432 62,32 62,48.568 48.568,62 32,62 Z"
             inkscape:connector-curvature="0" /></g></g><g
         id="g3425"><g
           id="g3427"><path
             id="path3429"
             d="m 43.012,22.307 -6.789,-4.033 c -0.938,-0.557 -2.137,-0.227 -2.678,0.738 l -7.291,13.338 -0.979,1.746 c -0.319,0.568 -0.781,1.278 -0.735,2.021 L 24.012,45 c 0,0 0.413,2 1.988,2 l 0,-0.014 c 0.283,-0.006 0.565,-0.064 0.826,-0.198 l 7.306,-4.976 c 0.647,-0.328 1.009,-1.099 1.327,-1.666 l 0.98,-1.748 0.49,-0.873 6.799,-12.464 c 0.543,-0.964 0.221,-2.198 -0.716,-2.754 z m -5.33,9.845 -2.449,4.365 -0.49,0.873 c 0,0 -0.352,0.625 -0.98,1.746 -0.629,1.122 -1.966,2.187 -2.452,2.432 l -3.718,3.011 c -0.44,0.226 -0.959,0.207 -1.383,-0.045 -0.424,-0.252 -0.698,-0.705 -0.729,-1.209 l 0.674,-4.818 c -0.034,-0.555 0.182,-2.271 0.817,-3.401 0.635,-1.133 1.96,-3.494 1.96,-3.494 l 1.96,-3.493 1.429,-2.661 6.791,4.031 -1.43,2.663 z m 2.36,-4.393 -6.792,-4.031 1.992,-3.708 6.79,4.033 -1.99,3.706 z"
             inkscape:connector-curvature="0" /></g></g></g></g><g
     id="g17" /><g
     id="g19" /><g
     id="g21" /><g
     id="g23" /><g
     id="g25" /><g
     id="g27" /><g
     id="g29" /><g
     id="g31" /><g
     id="g33" /><g
     id="g35" /><g
     id="g37" /><g
     id="g39" /><g
     id="g41" /><g
     id="g43" /><g
     id="g45" /></svg>