<?xml version="1.0" encoding="UTF-8" standalone="no"?>
<!-- Generator: Adobe Illustrator 16.0.0, SVG Export Plug-In . SVG Version: 6.00 Build 0)  -->

<svg
   xmlns:dc="http://purl.org/dc/elements/1.1/"
   xmlns:cc="http://creativecommons.org/ns#"
   xmlns:rdf="http://www.w3.org/1999/02/22-rdf-syntax-ns#"
   xmlns:svg="http://www.w3.org/2000/svg"
   xmlns="http://www.w3.org/2000/svg"
   xmlns:sodipodi="http://sodipodi.sourceforge.net/DTD/sodipodi-0.dtd"
   xmlns:inkscape="http://www.inkscape.org/namespaces/inkscape"
   version="1.1"
   id="Capa_1"
   x="0px"
   y="0px"
   width="64px"
   height="64px"
   viewBox="0 0 64 64"
   style="enable-background:new 0 0 64 64;"
   xml:space="preserve"
   inkscape:version="0.91 r13725"
   sodipodi:docname="rewind-double-arrow-outlined-circular-button.svg"
   inkscape:export-filename="C:\Users\david\Dropbox\00_ComputerSync\Documents\00_Music\Scores\David_Stephen_Grant\Classical\2016_nunord_strQuar\PROCESSING\dev\files\gui\rewind-double-arrow-outlined-circular-button.png"
   inkscape:export-xdpi="70.309998"
   inkscape:export-ydpi="70.309998"><metadata
     id="metadata51"><rdf:RDF><cc:Work
         rdf:about=""><dc:format>image/svg+xml</dc:format><dc:type
           rdf:resource="http://purl.org/dc/dcmitype/StillImage" /></cc:Work></rdf:RDF></metadata><defs
     id="defs49" /><sodipodi:namedview
     pagecolor="#ffffff"
     bordercolor="#666666"
     borderopacity="1"
     objecttolerance="10"
     gridtolerance="10"
     guidetolerance="10"
     inkscape:pageopacity="0"
     inkscape:pageshadow="2"
     inkscape:window-width="1600"
     inkscape:window-height="837"
     id="namedview47"
     showgrid="false"
     inkscape:zoom="3.6875"
     inkscape:cx="32"
     inkscape:cy="32"
     inkscape:window-x="-8"
     inkscape:window-y="-8"
     inkscape:window-maximized="1"
     inkscape:current-layer="Capa_1" /><g
     id="g3"><g
       id="g5"><g
         id="Rewind_copy_6"><g
           id="g8"><path
             d="M32,0C14.328,0,0,14.327,0,32s14.328,32,32,32s32-14.327,32-32S49.673,0,32,0z M32,62C15.432,62,2,48.568,2,32      C2,15.432,15.432,2,32,2c16.568,0,30,13.432,30,30C62,48.568,48.568,62,32,62z"
             id="path10" /></g></g><g
         id="Reply_copy_4"><g
           id="g13"><path
             d="M43.943,22.252c-0.649-0.348-1.438-0.309-2.053,0.1L33,28.271v-4.257c0-0.737-0.406-1.415-1.056-1.762      c-0.65-0.348-1.439-0.309-2.053,0.1l-12,7.989C17.335,30.712,17,31.335,17,32.003c0,0.667,0.334,1.291,0.891,1.662l12,7.989      c0.613,0.41,1.402,0.447,2.053,0.1C32.596,41.405,33,40.73,33,39.993v-4.259l8.891,5.92c0.613,0.41,1.402,0.447,2.053,0.1      C44.596,41.405,45,40.73,45,39.993V24.014C45,23.276,44.596,22.599,43.943,22.252z M42.988,37.795      c0,0.553-0.303,1.059-0.79,1.318c-0.487,0.261-1.078,0.231-1.537-0.074L33,33.809v-0.121l-0.275-0.067l-0.545-0.373      c-0.106-0.07-0.201-0.153-0.285-0.246H31v0.19l-0.012-0.004v4.607c0,0.553-0.304,1.059-0.791,1.318      c-0.487,0.261-1.078,0.231-1.537-0.074l-8.482-5.793c-0.417-0.277-0.667-0.744-0.667-1.244s0.25-0.966,0.667-1.243l8.482-5.794      c0.459-0.305,1.049-0.334,1.537-0.074c0.487,0.26,0.791,0.767,0.791,1.318v4.635L31,30.84V31h0.898      c0.082-0.091,0.176-0.172,0.28-0.241l0.764-0.522L33,30.219v-0.021l7.661-5.232c0.459-0.305,1.049-0.334,1.537-0.074      c0.487,0.26,0.79,0.767,0.79,1.318V37.795z"
             id="path15" /></g></g></g></g><g
     id="g17" /><g
     id="g19" /><g
     id="g21" /><g
     id="g23" /><g
     id="g25" /><g
     id="g27" /><g
     id="g29" /><g
     id="g31" /><g
     id="g33" /><g
     id="g35" /><g
     id="g37" /><g
     id="g39" /><g
     id="g41" /><g
     id="g43" /><g
     id="g45" /></svg>