<?xml version="1.0" encoding="UTF-8" standalone="no"?>
<!-- Generator: Adobe Illustrator 16.0.0, SVG Export Plug-In . SVG Version: 6.00 Build 0)  -->

<svg
   xmlns:dc="http://purl.org/dc/elements/1.1/"
   xmlns:cc="http://creativecommons.org/ns#"
   xmlns:rdf="http://www.w3.org/1999/02/22-rdf-syntax-ns#"
   xmlns:svg="http://www.w3.org/2000/svg"
   xmlns="http://www.w3.org/2000/svg"
   xmlns:sodipodi="http://sodipodi.sourceforge.net/DTD/sodipodi-0.dtd"
   xmlns:inkscape="http://www.inkscape.org/namespaces/inkscape"
   version="1.1"
   id="Capa_1"
   x="0px"
   y="0px"
   width="64px"
   height="64px"
   viewBox="0 0 64 64"
   style="enable-background:new 0 0 64 64;"
   xml:space="preserve"
   inkscape:version="0.91 r13725"
   sodipodi:docname="selected-white-edit-pencil-outline-in-circular-button.svg"
   inkscape:export-filename="C:\Users\david\Dropbox\00_ComputerSync\Documents\git-repositories\PiScore\sketches\launcher\gui\selected-white-50px-edit-pencil-outline-in-circular-button.png"
   inkscape:export-xdpi="70.309998"
   inkscape:export-ydpi="70.309998"><metadata
     id="metadata51"><rdf:RDF><cc:Work
         rdf:about=""><dc:format>image/svg+xml</dc:format><dc:type
           rdf:resource="http://purl.org/dc/dcmitype/StillImage" /><dc:title></dc:title></cc:Work></rdf:RDF></metadata><defs
     id="defs49" /><sodipodi:namedview
     pagecolor="#ffffff"
     bordercolor="#666666"
     borderopacity="1"
     objecttolerance="10"
     gridtolerance="10"
     guidetolerance="10"
     inkscape:pageopacity="0"
     inkscape:pageshadow="2"
     inkscape:window-width="1600"
     inkscape:window-height="837"
     id="namedview47"
     showgrid="false"
     inkscape:zoom="3.6875"
     inkscape:cx="-8.5423729"
     inkscape:cy="32"
     inkscape:window-x="-8"
     inkscape:window-y="-8"
     inkscape:window-maximized="1"
     inkscape:current-layer="Capa_1" /><circle
     style="fill:#ffffff;fill-opacity:1;stroke:none;stroke-opacity:1"
     id="path4155"
     cx="32"
     cy="32"
     r="32" /><g
     style="fill:#005a9e;fill-opacity:1"
     id="g13"><path
       inkscape:connector-curvature="0"
       style="fill:#005a9e;fill-opacity:1"
       id="path15"
       d="m 43.012,22.307 -6.789,-4.033 c -0.938,-0.557 -2.137,-0.227 -2.678,0.738 l -7.291,13.338 -0.979,1.746 c -0.319,0.568 -0.781,1.278 -0.735,2.021 L 24.012,45 c 0,0 0.413,2 1.988,2 l 0,-0.014 c 0.283,-0.006 0.565,-0.064 0.826,-0.198 l 7.306,-4.976 c 0.647,-0.328 1.009,-1.099 1.327,-1.666 l 0.98,-1.748 0.49,-0.873 6.799,-12.464 c 0.543,-0.964 0.221,-2.198 -0.716,-2.754 z m -5.33,9.845 -2.449,4.365 -0.49,0.873 c 0,0 -0.352,0.625 -0.98,1.746 -0.629,1.122 -1.966,2.187 -2.452,2.432 l -3.718,3.011 c -0.44,0.226 -0.959,0.207 -1.383,-0.045 -0.424,-0.252 -0.698,-0.705 -0.729,-1.209 l 0.674,-4.818 c -0.034,-0.555 0.182,-2.271 0.817,-3.401 0.635,-1.133 1.96,-3.494 1.96,-3.494 l 1.96,-3.493 1.429,-2.661 6.791,4.031 -1.43,2.663 z m 2.36,-4.393 -6.792,-4.031 1.992,-3.708 6.79,4.033 -1.99,3.706 z" /></g><g
     id="g17"
     style="fill:#005a9e;fill-opacity:1" /><g
     id="g19"
     style="fill:#005a9e;fill-opacity:1" /><g
     id="g21"
     style="fill:#005a9e;fill-opacity:1" /><g
     id="g23"
     style="fill:#005a9e;fill-opacity:1" /><g
     id="g25"
     style="fill:#005a9e;fill-opacity:1" /><g
     id="g27"
     style="fill:#005a9e;fill-opacity:1" /><g
     id="g29"
     style="fill:#005a9e;fill-opacity:1" /><g
     id="g31"
     style="fill:#005a9e;fill-opacity:1" /><g
     id="g33"
     style="fill:#005a9e;fill-opacity:1" /><g
     id="g35"
     style="fill:#005a9e;fill-opacity:1" /><g
     id="g37"
     style="fill:#005a9e;fill-opacity:1" /><g
     id="g39"
     style="fill:#005a9e;fill-opacity:1" /><g
     id="g41"
     style="fill:#005a9e;fill-opacity:1" /><g
     id="g43"
     style="fill:#005a9e;fill-opacity:1" /><g
     id="g45"
     style="fill:#005a9e;fill-opacity:1" /></svg>