<?xml version="1.0" encoding="UTF-8" standalone="no"?>
<!-- Generator: Adobe Illustrator 16.0.0, SVG Export Plug-In . SVG Version: 6.00 Build 0)  -->

<svg
   xmlns:dc="http://purl.org/dc/elements/1.1/"
   xmlns:cc="http://creativecommons.org/ns#"
   xmlns:rdf="http://www.w3.org/1999/02/22-rdf-syntax-ns#"
   xmlns:svg="http://www.w3.org/2000/svg"
   xmlns="http://www.w3.org/2000/svg"
   xmlns:sodipodi="http://sodipodi.sourceforge.net/DTD/sodipodi-0.dtd"
   xmlns:inkscape="http://www.inkscape.org/namespaces/inkscape"
   version="1.1"
   id="Capa_1"
   x="0px"
   y="0px"
   width="64px"
   height="64px"
   viewBox="0 0 64 64"
   style="enable-background:new 0 0 64 64;"
   xml:space="preserve"
   inkscape:version="0.91 r13725"
   sodipodi:docname="white-flash-outlined-thin-circular-button.svg"
   inkscape:export-filename="C:\Users\david\Dropbox\00_ComputerSync\Documents\git-repositories\PiScore\sketches\launcher\gui\white-100px-flash-outlined-thin-circular-button.png"
   inkscape:export-xdpi="140.625"
   inkscape:export-ydpi="140.625"><metadata
     id="metadata51"><rdf:RDF><cc:Work
         rdf:about=""><dc:format>image/svg+xml</dc:format><dc:type
           rdf:resource="http://purl.org/dc/dcmitype/StillImage" /></cc:Work></rdf:RDF></metadata><defs
     id="defs49" /><sodipodi:namedview
     pagecolor="#ffffff"
     bordercolor="#666666"
     borderopacity="1"
     objecttolerance="10"
     gridtolerance="10"
     guidetolerance="10"
     inkscape:pageopacity="0"
     inkscape:pageshadow="2"
     inkscape:window-width="1600"
     inkscape:window-height="837"
     id="namedview47"
     showgrid="false"
     inkscape:zoom="3.6875"
     inkscape:cx="-8.5423729"
     inkscape:cy="32"
     inkscape:window-x="-8"
     inkscape:window-y="-8"
     inkscape:window-maximized="1"
     inkscape:current-layer="Capa_1" /><g
     id="g3"
     style="fill:#ffffff"
     inkscape:export-xdpi="70.309998"
     inkscape:export-ydpi="70.309998"><g
       id="g5"
       style="fill:#ffffff"><g
         id="circle_28_"
         style="fill:#ffffff"><g
           id="g8"
           style="fill:#ffffff"><path
             d="M32,0C14.327,0,0,14.327,0,32s14.327,32,32,32s32-14.327,32-32S49.673,0,32,0z M32,62C15.432,62,2,48.568,2,32      C2,15.432,15.432,2,32,2c16.568,0,30,13.432,30,30C62,48.568,48.568,62,32,62z"
             id="path10"
             style="fill:#ffffff" /></g></g><g
         id="back_copy_2"
         style="fill:#ffffff"><g
           id="g13"
           style="fill:#ffffff"><path
             d="M39,29h-6.111c0.096,0,2.865-10.314,3.08-12.013c0-1.453-1.023-1.952-1.714-1.987c-0.665-0.034-1.53,0.334-1.901,0.891      l-7.3,10.809C23.684,28.86,22,30.896,22,32.031c0,1.955,1.091,3,3,3h5c0.464,0,0.913-0.016,0.913-0.016      s-2.881,9.483-2.881,11.871c0,1.855,1.016,2.077,1.705,2.112c0.665,0.034,1.352-0.334,1.722-0.892l6.73-10.123      C39.891,35.844,42,32.729,42,32C42,30.343,40.657,29,39,29z M37.087,36.786l-5.995,9.2c-0.303,0.457-0.438,0.92-0.982,0.92      c-0.546,0-0.765-0.156-0.765-0.889l3.633-10.984c0,0,0.021-0.449,0.021-1.002c0-0.823-0.58-1-1.214-1H25      c-0.553,0-1-0.604-1-1.156s2.484-3.782,2.819-4.286l5.902-9.576c0.303-0.457,0.438-0.919,0.981-0.919      c0.546,0,0.733,0.156,0.733,0.888l-3.444,10.972c0,0-0.009-0.253-0.009,1.064c0,0.933,0.641,0.998,1.106,0.982H39      c0.553,0,1,0.447,1,1S37.422,36.282,37.087,36.786z"
             id="path15"
             style="fill:#ffffff" /></g></g></g></g><g
     id="g17"
     style="fill:#ffffff"
     inkscape:export-xdpi="70.309998"
     inkscape:export-ydpi="70.309998" /><g
     id="g19"
     style="fill:#ffffff"
     inkscape:export-xdpi="70.309998"
     inkscape:export-ydpi="70.309998" /><g
     id="g21"
     style="fill:#ffffff"
     inkscape:export-xdpi="70.309998"
     inkscape:export-ydpi="70.309998" /><g
     id="g23"
     style="fill:#ffffff"
     inkscape:export-xdpi="70.309998"
     inkscape:export-ydpi="70.309998" /><g
     id="g25"
     style="fill:#ffffff"
     inkscape:export-xdpi="70.309998"
     inkscape:export-ydpi="70.309998" /><g
     id="g27"
     style="fill:#ffffff"
     inkscape:export-xdpi="70.309998"
     inkscape:export-ydpi="70.309998" /><g
     id="g29"
     style="fill:#ffffff"
     inkscape:export-xdpi="70.309998"
     inkscape:export-ydpi="70.309998" /><g
     id="g31"
     style="fill:#ffffff"
     inkscape:export-xdpi="70.309998"
     inkscape:export-ydpi="70.309998" /><g
     id="g33"
     style="fill:#ffffff"
     inkscape:export-xdpi="70.309998"
     inkscape:export-ydpi="70.309998" /><g
     id="g35"
     style="fill:#ffffff"
     inkscape:export-xdpi="70.309998"
     inkscape:export-ydpi="70.309998" /><g
     id="g37"
     style="fill:#ffffff"
     inkscape:export-xdpi="70.309998"
     inkscape:export-ydpi="70.309998" /><g
     id="g39"
     style="fill:#ffffff"
     inkscape:export-xdpi="70.309998"
     inkscape:export-ydpi="70.309998" /><g
     id="g41"
     style="fill:#ffffff"
     inkscape:export-xdpi="70.309998"
     inkscape:export-ydpi="70.309998" /><g
     id="g43"
     style="fill:#ffffff"
     inkscape:export-xdpi="70.309998"
     inkscape:export-ydpi="70.309998" /><g
     id="g45"
     style="fill:#ffffff"
     inkscape:export-xdpi="70.309998"
     inkscape:export-ydpi="70.309998" /></svg>