<?xml version="1.0" encoding="UTF-8" standalone="no"?>
<!-- Generator: Adobe Illustrator 16.0.0, SVG Export Plug-In . SVG Version: 6.00 Build 0)  -->

<svg
   xmlns:dc="http://purl.org/dc/elements/1.1/"
   xmlns:cc="http://creativecommons.org/ns#"
   xmlns:rdf="http://www.w3.org/1999/02/22-rdf-syntax-ns#"
   xmlns:svg="http://www.w3.org/2000/svg"
   xmlns="http://www.w3.org/2000/svg"
   xmlns:sodipodi="http://sodipodi.sourceforge.net/DTD/sodipodi-0.dtd"
   xmlns:inkscape="http://www.inkscape.org/namespaces/inkscape"
   version="1.1"
   id="Capa_1"
   x="0px"
   y="0px"
   width="64px"
   height="64px"
   viewBox="0 0 64 64"
   style="enable-background:new 0 0 64 64;"
   xml:space="preserve"
   inkscape:version="0.91 r13725"
   sodipodi:docname="white-outline-in-circular-button.svg"
   inkscape:export-filename="C:\Users\david\Desktop\white-50px-folder-outline-in-circular-button.png"
   inkscape:export-xdpi="70.3125"
   inkscape:export-ydpi="70.3125"><metadata
     id="metadata56"><rdf:RDF><cc:Work
         rdf:about=""><dc:format>image/svg+xml</dc:format><dc:type
           rdf:resource="http://purl.org/dc/dcmitype/StillImage" /></cc:Work></rdf:RDF></metadata><defs
     id="defs54" /><sodipodi:namedview
     pagecolor="#ffffff"
     bordercolor="#666666"
     borderopacity="1"
     objecttolerance="10"
     gridtolerance="10"
     guidetolerance="10"
     inkscape:pageopacity="0"
     inkscape:pageshadow="2"
     inkscape:window-width="1600"
     inkscape:window-height="837"
     id="namedview52"
     showgrid="false"
     inkscape:zoom="3.6875"
     inkscape:cx="32"
     inkscape:cy="32"
     inkscape:window-x="-8"
     inkscape:window-y="-8"
     inkscape:window-maximized="1"
     inkscape:current-layer="Capa_1" /><g
     id="g3"
     style="fill:#ffffff"><g
       id="g5"
       style="fill:#ffffff"><g
         id="circle_13_"
         style="fill:#ffffff"><g
           id="g8"
           style="fill:#ffffff"><path
             d="M32,0C14.327,0,0,14.327,0,32c0,17.674,14.327,32,32,32s32-14.326,32-32C64,14.327,49.673,0,32,0z M32,62      C15.432,62,2,48.568,2,32.001C2,15.432,15.432,2,32,2c16.568,0,30,13.432,30,30.001C62,48.568,48.568,62,32,62z"
             id="path10"
             style="fill:#ffffff" /></g></g><g
         id="Rounded_Rectangle_8"
         style="fill:#ffffff"><g
           id="g13"
           style="fill:#ffffff"><path
             d="M46,28H18c-1.104,0-2,0.896-2,2l4,11c0,1.104,0.896,2,2,2h20c1.104,0,2-0.896,2-2l4-11C48,28.896,47.104,28,46,28z       M42,41H22l-4-11h28L42,41z"
             id="path15"
             style="fill:#ffffff" /></g></g><g
         id="Rounded_Rectangle_9"
         style="fill:#ffffff"><g
           id="g18"
           style="fill:#ffffff"><path
             d="M44,24H31v-1c0-1.104-0.896-2-2-2h-9c-1.104,0-2,0.896-2,2v5c0,1.104,0.896,2,2,2h7c0.174,0,0.339-0.029,0.5-0.07      C27.661,29.971,27.826,30,28,30h16c1.104,0,2-0.896,2-2v-2C46,24.896,45.104,24,44,24z M44,29H20v-6h9v3h15V29z"
             id="path20"
             style="fill:#ffffff" /></g></g></g></g><g
     id="g22"
     style="fill:#ffffff" /><g
     id="g24"
     style="fill:#ffffff" /><g
     id="g26"
     style="fill:#ffffff" /><g
     id="g28"
     style="fill:#ffffff" /><g
     id="g30"
     style="fill:#ffffff" /><g
     id="g32"
     style="fill:#ffffff" /><g
     id="g34"
     style="fill:#ffffff" /><g
     id="g36"
     style="fill:#ffffff" /><g
     id="g38"
     style="fill:#ffffff" /><g
     id="g40"
     style="fill:#ffffff" /><g
     id="g42"
     style="fill:#ffffff" /><g
     id="g44"
     style="fill:#ffffff" /><g
     id="g46"
     style="fill:#ffffff" /><g
     id="g48"
     style="fill:#ffffff" /><g
     id="g50"
     style="fill:#ffffff" /></svg>