<?xml version="1.0" encoding="UTF-8" standalone="no"?>
<!-- Generator: Adobe Illustrator 16.0.0, SVG Export Plug-In . SVG Version: 6.00 Build 0)  -->

<svg
   xmlns:dc="http://purl.org/dc/elements/1.1/"
   xmlns:cc="http://creativecommons.org/ns#"
   xmlns:rdf="http://www.w3.org/1999/02/22-rdf-syntax-ns#"
   xmlns:svg="http://www.w3.org/2000/svg"
   xmlns="http://www.w3.org/2000/svg"
   xmlns:sodipodi="http://sodipodi.sourceforge.net/DTD/sodipodi-0.dtd"
   xmlns:inkscape="http://www.inkscape.org/namespaces/inkscape"
   version="1.1"
   id="Capa_1"
   x="0px"
   y="0px"
   width="64px"
   height="64px"
   viewBox="0 0 64 64"
   style="enable-background:new 0 0 64 64;"
   xml:space="preserve"
   inkscape:version="0.91 r13725"
   sodipodi:docname="white-arroba-outlined-circular-button.svg"
   inkscape:export-filename="C:\Users\david\Dropbox\00_ComputerSync\Documents\git-repositories\PiScoreBU\gui\white-50px-arroba-outlined-circular-button.png"
   inkscape:export-xdpi="70.309998"
   inkscape:export-ydpi="70.309998"><metadata
     id="metadata51"><rdf:RDF><cc:Work
         rdf:about=""><dc:format>image/svg+xml</dc:format><dc:type
           rdf:resource="http://purl.org/dc/dcmitype/StillImage" /></cc:Work></rdf:RDF></metadata><defs
     id="defs49" /><sodipodi:namedview
     pagecolor="#ffffff"
     bordercolor="#666666"
     borderopacity="1"
     objecttolerance="10"
     gridtolerance="10"
     guidetolerance="10"
     inkscape:pageopacity="0"
     inkscape:pageshadow="2"
     inkscape:window-width="1600"
     inkscape:window-height="837"
     id="namedview47"
     showgrid="false"
     inkscape:zoom="3.6875"
     inkscape:cx="32"
     inkscape:cy="32"
     inkscape:window-x="-8"
     inkscape:window-y="-8"
     inkscape:window-maximized="1"
     inkscape:current-layer="Capa_1" /><g
     id="g3"
     style="fill:#ffffff"><g
       id="g5"
       style="fill:#ffffff"><g
         id="circle_copy_4_"
         style="fill:#ffffff"><g
           id="g8"
           style="fill:#ffffff"><path
             d="M32,0C14.327,0,0,14.327,0,32s14.327,32,32,32s32-14.327,32-32S49.673,0,32,0z M32,62.001c-16.568,0-30-13.433-30-30      C2,15.432,15.432,2,32,2c16.568,0,30,13.432,30,30.001C62,48.568,48.568,62.001,32,62.001z"
             id="path10"
             style="fill:#ffffff" /></g></g><g
         id="_x40_"
         style="fill:#ffffff"><g
           id="g13"
           style="fill:#ffffff"><path
             d="M42.568,24.474c-0.955-1.754-2.305-3.106-4.051-4.06c-1.748-0.953-3.742-1.43-5.984-1.43      c-2.67,0-5.038,0.587-7.103,1.762c-2.065,1.174-3.656,2.83-4.771,4.967c-1.116,2.139-1.674,4.576-1.674,7.314      c0,3.77,1.046,6.705,3.137,8.806c2.091,2.101,5.03,3.151,8.815,3.151c2.545,0,4.819-0.442,6.821-1.327v-2.101      c-2.357,0.904-4.63,1.357-6.821,1.357c-3.16,0-5.58-0.863-7.259-2.591c-1.679-1.728-2.519-4.196-2.519-7.408      c0-2.369,0.454-4.457,1.361-6.263c0.908-1.806,2.222-3.196,3.942-4.17c1.721-0.975,3.745-1.462,6.07-1.462      c1.846,0,3.481,0.388,4.905,1.161c1.422,0.774,2.521,1.878,3.293,3.31c0.771,1.433,1.158,3.102,1.158,5.008      c0,1.812-0.298,3.282-0.893,4.414c-0.596,1.133-1.367,1.698-2.314,1.698c-1.389,0-2.082-0.938-2.082-2.812v-0.348l0.392-7.424      c-0.72-0.231-1.528-0.413-2.425-0.545c-0.897-0.132-1.7-0.197-2.409-0.197c-2.002,0-3.619,0.671-4.85,2.014      c-1.231,1.343-1.846,3.088-1.846,5.236c0,1.854,0.44,3.32,1.322,4.398c0.882,1.08,2.104,1.619,3.669,1.619      c1.063,0,1.983-0.258,2.761-0.773s1.375-1.231,1.792-2.148h0.125c0.115,0.854,0.479,1.555,1.095,2.102      c0.615,0.548,1.371,0.822,2.269,0.822c1.085,0,2.044-0.344,2.879-1.027c0.834-0.686,1.479-1.647,1.938-2.892      C43.771,33.396,44,32.025,44,30.531C44,28.246,43.523,26.227,42.568,24.474z M34.395,31.668      c-0.188,3.297-1.36,4.943-3.521,4.943c-2.034,0-3.05-1.336-3.05-4.012c0-1.685,0.383-3.001,1.15-3.949      c0.767-0.948,1.828-1.422,3.184-1.422c0.886,0,1.705,0.105,2.455,0.316L34.395,31.668z"
             id="path15"
             style="fill:#ffffff" /></g></g></g></g><g
     id="g17"
     style="fill:#ffffff" /><g
     id="g19"
     style="fill:#ffffff" /><g
     id="g21"
     style="fill:#ffffff" /><g
     id="g23"
     style="fill:#ffffff" /><g
     id="g25"
     style="fill:#ffffff" /><g
     id="g27"
     style="fill:#ffffff" /><g
     id="g29"
     style="fill:#ffffff" /><g
     id="g31"
     style="fill:#ffffff" /><g
     id="g33"
     style="fill:#ffffff" /><g
     id="g35"
     style="fill:#ffffff" /><g
     id="g37"
     style="fill:#ffffff" /><g
     id="g39"
     style="fill:#ffffff" /><g
     id="g41"
     style="fill:#ffffff" /><g
     id="g43"
     style="fill:#ffffff" /><g
     id="g45"
     style="fill:#ffffff" /></svg>