<?xml version="1.0" encoding="UTF-8" standalone="no"?>
<svg
   xmlns:dc="http://purl.org/dc/elements/1.1/"
   xmlns:cc="http://creativecommons.org/ns#"
   xmlns:rdf="http://www.w3.org/1999/02/22-rdf-syntax-ns#"
   xmlns:svg="http://www.w3.org/2000/svg"
   xmlns="http://www.w3.org/2000/svg"
   version="1.1"
   height="765"
   width="765"
   id="svg2">
  <metadata
     id="metadata10">
    <rdf:RDF>
      <cc:Work
         rdf:about="">
        <dc:format>image/svg+xml</dc:format>
        <dc:type
           rdf:resource="http://purl.org/dc/dcmitype/StillImage" />
        <dc:title></dc:title>
      </cc:Work>
    </rdf:RDF>
  </metadata>
  <defs
     id="defs8" />
  <g
     style="fill:#ffffff"
     id="g4179"
     transform="translate(51.919288,16.102711)">
    <path
       style="fill:#ffffff;fill-opacity:1;stroke:none"
       d="m 10.530465,176.36126 20.675245,1.5315 C 52.646704,153.64402 61.06995,81.918786 187.41867,95.957533 182.82417,403.27846 48.021426,436.37234 56.444675,499.41907 c 3.062999,35.73499 31.395742,57.68649 62.025735,58.96274 96.73973,-3.31825 92.40048,-133.75097 122.51997,-462.512889 l 124.81722,0 C 357.08175,214.53819 347.44824,303.07526 347.44824,303.07526 396.01496,236.87077 413.16731,232.81718 449.3569,197.4619 435.02005,117.30752 440.97554,69.596715 467.14634,10.959299 43.78559,11.712688 85.343063,-2.8137531 10.530465,176.36126 Z"
       id="path3377" />
    <path
       id="path3345-3"
       style="font-style:normal;font-weight:normal;font-size:40px;line-height:125%;font-family:sans-serif;letter-spacing:0px;word-spacing:0px;fill:#ffffff;fill-opacity:1;stroke:none;stroke-width:1px;stroke-linecap:butt;stroke-linejoin:miter;stroke-opacity:1"
       d="m 563.12654,51.642595 c 14.3664,0 26.12074,11.754326 26.12074,35.698326 0,30.038829 -14.3664,57.900919 -48.32334,91.857859 -6.96552,6.96553 -17.41381,16.97848 -27.42676,25.68538 -3.04741,2.61207 -4.78879,2.17672 -5.65949,-3.48276 -1.74137,-11.31898 -2.61207,-26.12073 -2.61207,-40.05178 0,-67.913872 31.34487,-109.707025 57.90092,-109.707025 z M 545.71278,417.33269 c -0.87072,-5.22414 -0.43538,-6.53018 4.7888,-6.09484 35.26293,3.04743 64.43104,32.65091 64.43104,70.9613 0,27.42675 -16.54304,49.62937 -40.92246,61.81904 -5.2241,2.61208 -6.09482,2.61208 -6.96554,-2.61207 L 545.71278,417.33269 Z m -30.03886,-69.2199 c 1.30603,8.27155 1.30603,7.83621 -6.53019,10.44828 -38.31039,13.06036 -63.12507,47.45264 -63.12507,84.45699 0,39.18109 20.46123,67.04319 50.06471,77.05614 3.48276,1.30603 8.70691,2.61207 11.75432,2.61207 3.48277,0 5.22415,-2.17673 5.22415,-4.7888 0,-3.04742 -3.48276,-4.35345 -6.53018,-5.65949 -18.2845,-7.83621 -31.34487,-26.55606 -31.34487,-46.58195 0,-24.81469 16.97848,-43.53454 43.53454,-50.93542 6.96553,-1.74137 7.83622,-1.30602 8.70691,3.48278 l 21.76731,129.73291 c 0.87061,4.7888 0.43531,4.7888 -6.09488,6.09483 -6.96552,1.30604 -15.67243,2.17674 -24.37934,2.17674 -76.18544,0 -125.37946,-42.2285 -125.37946,-102.74151 0,-25.68538 4.35345,-60.07766 40.48712,-101.00012 26.12072,-29.16814 46.1466,-45.27593 66.60784,-61.81904 4.35345,-3.48277 5.22414,-3.04743 6.09483,1.74137 l 9.14226,55.72422 z m 6.53017,-66.60785 c -0.87068,-5.22414 0,-5.65949 2.61208,-8.27156 6.96552,-6.53018 16.10777,-15.67243 24.37938,-24.81468 36.56896,-40.05178 58.33621,-91.85788 58.33621,-141.05189 0,-37.875051 -10.44832,-75.314754 -28.29738,-101.435479 -6.53024,-9.577589 -17.84918,-21.767263 -22.63798,-21.767263 -6.09482,0 -19.59057,11.318975 -28.29747,20.896575 -32.21556,35.698326 -42.66385,90.116491 -42.66385,135.392397 0,25.25004 3.04743,53.54748 6.09484,71.39664 0.87069,5.22415 1.30604,6.09484 -3.91811,10.44829 -27.8621,23.0733 -57.90093,49.62938 -80.53889,77.49148 -30.03883,37.4397 -48.75868,77.92681 -48.75868,124.50876 0,75.75011 51.8061,147.58208 158.46571,147.58208 10.01294,0 21.33192,-0.87069 30.03885,-2.61207 4.7888,-0.87069 5.65942,-1.30603 6.53014,3.91811 5.22421,29.16814 11.75434,67.04319 11.75434,87.50442 0,64.43111 -43.53453,72.26732 -69.21991,72.26732 -23.50865,0 -34.82763,-6.96552 -34.82763,-12.62501 0,-3.04741 3.91812,-4.35345 13.93105,-7.40086 13.49572,-3.91812 29.16814,-15.67244 29.16814,-40.92247 0,-23.944 -15.23709,-44.40522 -41.79315,-44.40522 -29.16814,0 -46.58195,23.0733 -46.58195,50.06471 0,28.29744 16.97846,70.96129 82.71561,70.96129 29.16814,0 85.76304,-13.06036 85.76304,-87.06908 0,-24.81467 -7.83626,-66.17249 -12.62506,-93.1639 -0.87062,-5.22414 -0.43531,-4.7888 5.65952,-7.40086 43.96992,-17.41383 73.13802,-54.41818 73.13802,-103.61221 0,-55.7242 -40.92245,-104.91822 -104.91818,-104.91822 -11.31901,0 -11.31901,0 -12.62505,-7.83623 l -10.88364,-63.12507 z" />
  </g>
</svg>
