<?xml version="1.0" encoding="UTF-8" standalone="no"?>
<!-- Generator: Adobe Illustrator 16.0.0, SVG Export Plug-In . SVG Version: 6.00 Build 0)  -->

<svg
   xmlns:dc="http://purl.org/dc/elements/1.1/"
   xmlns:cc="http://creativecommons.org/ns#"
   xmlns:rdf="http://www.w3.org/1999/02/22-rdf-syntax-ns#"
   xmlns:svg="http://www.w3.org/2000/svg"
   xmlns="http://www.w3.org/2000/svg"
   xmlns:sodipodi="http://sodipodi.sourceforge.net/DTD/sodipodi-0.dtd"
   xmlns:inkscape="http://www.inkscape.org/namespaces/inkscape"
   version="1.1"
   id="Capa_1"
   x="0px"
   y="0px"
   width="64px"
   height="64px"
   viewBox="0 0 64 64"
   style="enable-background:new 0 0 64 64;"
   xml:space="preserve"
   inkscape:version="0.91 r13725"
   sodipodi:docname="white-edit-pencil-outline-in-circular-button.svg"
   inkscape:export-filename="C:\Users\david\Dropbox\00_ComputerSync\Documents\git-repositories\PiScore\sketches\launcher\gui\white-50px-edit-pencil-outline-in-circular-button.png"
   inkscape:export-xdpi="70.309998"
   inkscape:export-ydpi="70.309998"><metadata
     id="metadata51"><rdf:RDF><cc:Work
         rdf:about=""><dc:format>image/svg+xml</dc:format><dc:type
           rdf:resource="http://purl.org/dc/dcmitype/StillImage" /></cc:Work></rdf:RDF></metadata><defs
     id="defs49" /><sodipodi:namedview
     pagecolor="#ffffff"
     bordercolor="#666666"
     borderopacity="1"
     objecttolerance="10"
     gridtolerance="10"
     guidetolerance="10"
     inkscape:pageopacity="0"
     inkscape:pageshadow="2"
     inkscape:window-width="1600"
     inkscape:window-height="837"
     id="namedview47"
     showgrid="false"
     inkscape:zoom="3.6875"
     inkscape:cx="-8.5423729"
     inkscape:cy="32"
     inkscape:window-x="-8"
     inkscape:window-y="-8"
     inkscape:window-maximized="1"
     inkscape:current-layer="Capa_1" /><g
     id="g3"
     style="fill:#ffffff"><g
       id="g5"
       style="fill:#ffffff"><g
         id="circle_copy_3_2_"
         style="fill:#ffffff"><g
           id="g8"
           style="fill:#ffffff"><path
             d="M32,0C14.327,0,0,14.327,0,32s14.327,32,32,32s32-14.327,32-32S49.673,0,32,0z M32,62C15.432,62,2,48.568,2,32      C2,15.432,15.432,2,32,2c16.568,0,30,13.432,30,30C62,48.568,48.568,62,32,62z"
             id="path10"
             style="fill:#ffffff" /></g></g><g
         id="Rewind_copy_7"
         style="fill:#ffffff"><g
           id="g13"
           style="fill:#ffffff"><path
             d="M43.012,22.307l-6.789-4.033c-0.938-0.557-2.137-0.227-2.678,0.738L26.254,32.35l-0.979,1.746      c-0.319,0.568-0.781,1.278-0.735,2.021L24.012,45c0,0,0.413,2,1.988,2v-0.014c0.283-0.006,0.565-0.064,0.826-0.198l7.306-4.976      c0.647-0.328,1.009-1.099,1.327-1.666l0.98-1.748l0.49-0.873l6.799-12.464C44.271,24.097,43.949,22.863,43.012,22.307z       M37.682,32.152l-2.449,4.365l-0.49,0.873c0,0-0.352,0.625-0.98,1.746c-0.629,1.122-1.966,2.187-2.452,2.432l-3.718,3.011      c-0.44,0.226-0.959,0.207-1.383-0.045s-0.698-0.705-0.729-1.209l0.674-4.818c-0.034-0.555,0.182-2.271,0.817-3.401      c0.635-1.133,1.96-3.494,1.96-3.494l1.96-3.493l1.429-2.661l6.791,4.031L37.682,32.152z M40.042,27.759l-6.792-4.031      l1.992-3.708l6.79,4.033L40.042,27.759z"
             id="path15"
             style="fill:#ffffff" /></g></g></g></g><g
     id="g17"
     style="fill:#ffffff" /><g
     id="g19"
     style="fill:#ffffff" /><g
     id="g21"
     style="fill:#ffffff" /><g
     id="g23"
     style="fill:#ffffff" /><g
     id="g25"
     style="fill:#ffffff" /><g
     id="g27"
     style="fill:#ffffff" /><g
     id="g29"
     style="fill:#ffffff" /><g
     id="g31"
     style="fill:#ffffff" /><g
     id="g33"
     style="fill:#ffffff" /><g
     id="g35"
     style="fill:#ffffff" /><g
     id="g37"
     style="fill:#ffffff" /><g
     id="g39"
     style="fill:#ffffff" /><g
     id="g41"
     style="fill:#ffffff" /><g
     id="g43"
     style="fill:#ffffff" /><g
     id="g45"
     style="fill:#ffffff" /></svg>